<svg width="24" height="24" viewBox="0 0 24 24" fill="none" xmlns="http://www.w3.org/2000/svg">
<mask id="path-1-outside-1_1_1278" maskUnits="userSpaceOnUse" x="4" y="2" width="16" height="20" fill="black">
<rect fill="white" x="4" y="2" width="16" height="20"/>
<path fill-rule="evenodd" clip-rule="evenodd" d="M6 4H8V6H10V8H12V10H14V14H12V16H10V18H8V20H6V4ZM18 4H16V20H18V4Z"/>
</mask>
<path fill-rule="evenodd" clip-rule="evenodd" d="M6 4H8V6H10V8H12V10H14V14H12V16H10V18H8V20H6V4ZM18 4H16V20H18V4Z" fill="white"/>
<path d="M8 4H10V2H8V4ZM6 4V2H4V4H6ZM8 6H6V8H8V6ZM10 6H12V4H10V6ZM10 8H8V10H10V8ZM12 8H14V6H12V8ZM12 10H10V12H12V10ZM14 10H16V8H14V10ZM14 14V16H16V14H14ZM12 14V12H10V14H12ZM12 16V18H14V16H12ZM10 16V14H8V16H10ZM10 18V20H12V18H10ZM8 18V16H6V18H8ZM8 20V22H10V20H8ZM6 20H4V22H6V20ZM16 4V2H14V4H16ZM18 4H20V2H18V4ZM16 20H14V22H16V20ZM18 20V22H20V20H18ZM8 2H6V6H8V2ZM10 6V4H6V6H10ZM10 4H8V8H10V4ZM12 8V6H8V8H12ZM12 6H10V10H12V6ZM14 10V8H10V10H14ZM12 12H14V8H12V12ZM12 10V14H16V10H12ZM14 12H12V16H14V12ZM14 16V14H10V16H14ZM10 18H12V14H10V18ZM12 18V16H8V18H12ZM8 20H10V16H8V20ZM10 20V18H6V20H10ZM6 22H8V18H6V22ZM4 4V20H8V4H4ZM16 6H18V2H16V6ZM18 20V4H14V20H18ZM18 18H16V22H18V18ZM16 4V20H20V4H16Z" fill="black" mask="url(#path-1-outside-1_1_1278)"/>
</svg>
