<svg width="24" height="24" viewBox="0 0 24 24" fill="none" xmlns="http://www.w3.org/2000/svg">
<mask id="path-1-outside-1_1_1797" maskUnits="userSpaceOnUse" x="1" y="0" width="22" height="24" fill="black">
<rect fill="white" x="1" width="22" height="24"/>
<path fill-rule="evenodd" clip-rule="evenodd" d="M11 2H13V22H11V20H9V18H11V6H9V4H11V2ZM7 8V6H9V8H7ZM7 16H5H3V14V10V8H5H7V10H5V14H7V16ZM7 16V18H9V16H7ZM17 10H15V14H17V10ZM19 8H21V16H19V8ZM19 16V18H15V16H19ZM19 6V8H15V6H19Z"/>
</mask>
<path fill-rule="evenodd" clip-rule="evenodd" d="M11 2H13V22H11V20H9V18H11V6H9V4H11V2ZM7 8V6H9V8H7ZM7 16H5H3V14V10V8H5H7V10H5V14H7V16ZM7 16V18H9V16H7ZM17 10H15V14H17V10ZM19 8H21V16H19V8ZM19 16V18H15V16H19ZM19 6V8H15V6H19Z" fill="white"/>
<path d="M13 2H15V0H13V2ZM11 2V0H9V2H11ZM13 22V24H15V22H13ZM11 22H9V24H11V22ZM11 20H13V18H11V20ZM9 20H7V22H9V20ZM11 18V20H13V18H11ZM11 6H13V4H11V6ZM9 4V2H7V4H9ZM11 4V6H13V4H11ZM7 6V4H5V6H7ZM9 8V10H11V8H9ZM3 16H1V18H3V16ZM3 8V6H1V8H3ZM7 10V12H9V10H7ZM5 10V8H3V10H5ZM5 14H3V16H5V14ZM7 14H9V12H7V14ZM7 18H5V20H7V18ZM9 16H11V14H9V16ZM15 10V8H13V10H15ZM17 10H19V8H17V10ZM15 14H13V16H15V14ZM17 14V16H19V14H17ZM21 8H23V6H21V8ZM21 16V18H23V16H21ZM19 18V20H21V18H19ZM15 18H13V20H15V18ZM15 16V14H13V16H15ZM19 6H21V4H19V6ZM15 8H13V10H15V8ZM15 6V4H13V6H15ZM13 0H11V4H13V0ZM15 22V2H11V22H15ZM11 24H13V20H11V24ZM9 20V22H13V20H9ZM9 22H11V18H9V22ZM7 18V20H11V18H7ZM11 16H9V20H11V16ZM9 6V18H13V6H9ZM9 8H11V4H9V8ZM7 4V6H11V4H7ZM11 2H9V6H11V2ZM9 2V4H13V2H9ZM5 6V8H9V6H5ZM9 4H7V8H9V4ZM11 8V6H7V8H11ZM7 10H9V6H7V10ZM5 18H7V14H5V18ZM3 18H5V14H3V18ZM1 14V16H5V14H1ZM1 10V14H5V10H1ZM1 8V10H5V8H1ZM5 6H3V10H5V6ZM7 6H5V10H7V6ZM9 10V8H5V10H9ZM5 12H7V8H5V12ZM7 14V10H3V14H7ZM7 12H5V16H7V12ZM9 16V14H5V16H9ZM5 16V18H9V16H5ZM7 20H9V16H7V20ZM11 18V16H7V18H11ZM9 14H7V18H9V14ZM15 12H17V8H15V12ZM17 14V10H13V14H17ZM17 12H15V16H17V12ZM15 10V14H19V10H15ZM21 6H19V10H21V6ZM23 16V8H19V16H23ZM19 18H21V14H19V18ZM17 8V16H21V8H17ZM17 16V18H21V16H17ZM19 16H15V20H19V16ZM17 18V16H13V18H17ZM15 18H19V14H15V18ZM21 8V6H17V8H21ZM15 10H19V6H15V10ZM13 6V8H17V6H13ZM19 4H15V8H19V4Z" fill="black" mask="url(#path-1-outside-1_1_1797)"/>
</svg>
