<svg width="24" height="24" viewBox="0 0 24 24" fill="none" xmlns="http://www.w3.org/2000/svg">
<mask id="path-1-outside-1_1_1872" maskUnits="userSpaceOnUse" x="1" y="0" width="23" height="24" fill="black">
<rect fill="white" x="1" width="23" height="24"/>
<path fill-rule="evenodd" clip-rule="evenodd" d="M13 2H11V4H9V6H7V8H5H3V10V14V16H5H7V18H9V20H11V22H13V2ZM9 18V16H7V14H5V10H7V8H9V6H11V18H9ZM19.0002 11.2233H17.0005V9.22327H15.0005V11.2233H17.0002V13.2233L15.0005 13.2233V15.2233H17.0005V13.2233L19.0002 13.2233V15.2233H21.0002V13.2233L19.0002 13.2233V11.2233ZM19.0002 11.2233H21.0002V9.22327H19.0002V11.2233Z"/>
</mask>
<path fill-rule="evenodd" clip-rule="evenodd" d="M13 2H11V4H9V6H7V8H5H3V10V14V16H5H7V18H9V20H11V22H13V2ZM9 18V16H7V14H5V10H7V8H9V6H11V18H9ZM19.0002 11.2233H17.0005V9.22327H15.0005V11.2233H17.0002V13.2233L15.0005 13.2233V15.2233H17.0005V13.2233L19.0002 13.2233V15.2233H21.0002V13.2233L19.0002 13.2233V11.2233ZM19.0002 11.2233H21.0002V9.22327H19.0002V11.2233Z" fill="white"/>
<path d="M11 2V0H9V2H11ZM13 2H15V0H13V2ZM11 4V6H13V4H11ZM9 4V2H7V4H9ZM7 6V4H5V6H7ZM3 8V6H1V8H3ZM3 16H1V18H3V16ZM7 18H5V20H7V18ZM9 20H7V22H9V20ZM11 20H13V18H11V20ZM11 22H9V24H11V22ZM13 22V24H15V22H13ZM9 16H11V14H9V16ZM7 14H9V12H7V14ZM5 14H3V16H5V14ZM5 10V8H3V10H5ZM7 10V12H9V10H7ZM9 8V10H11V8H9ZM11 6H13V4H11V6ZM11 18V20H13V18H11ZM17.0005 11.2233H15.0005V13.2233H17.0005V11.2233ZM17.0005 9.22327H19.0005V7.22327H17.0005V9.22327ZM15.0005 9.22327V7.22327H13.0005V9.22327H15.0005ZM15.0005 11.2233H13.0005V13.2233H15.0005V11.2233ZM17.0002 11.2233H19.0002V9.22327H17.0002V11.2233ZM17.0002 13.2233L17.0002 15.2233L19.0002 15.2233V13.2233H17.0002ZM15.0005 13.2233L15.0005 11.2233L13.0005 11.2233V13.2233H15.0005ZM15.0005 15.2233H13.0005V17.2233H15.0005V15.2233ZM17.0005 15.2233V17.2233H19.0005V15.2233H17.0005ZM17.0005 13.2233L17.0005 11.2233L15.0005 11.2233V13.2233H17.0005ZM19.0002 15.2233H17.0002V17.2233H19.0002V15.2233ZM21.0002 15.2233V17.2233H23.0002V15.2233H21.0002ZM21.0002 13.2233H23.0002V11.2233L21.0002 11.2233L21.0002 13.2233ZM21.0002 11.2233V13.2233H23.0002V11.2233H21.0002ZM21.0002 9.22327H23.0002V7.22327H21.0002V9.22327ZM19.0002 9.22327V7.22327H17.0002V9.22327H19.0002ZM11 4H13V0H11V4ZM13 4V2H9V4H13ZM9 6H11V2H9V6ZM11 6V4H7V6H11ZM7 8H9V4H7V8ZM9 8V6H5V8H9ZM5 10H7V6H5V10ZM3 10H5V6H3V10ZM5 10V8H1V10H5ZM5 14V10H1V14H5ZM5 16V14H1V16H5ZM5 14H3V18H5V14ZM7 14H5V18H7V14ZM5 16V18H9V16H5ZM7 20H9V16H7V20ZM11 20V18H7V20H11ZM11 18H9V22H11V18ZM13 22V20H9V22H13ZM13 20H11V24H13V20ZM11 2V22H15V2H11ZM11 18V16H7V18H11ZM9 14H7V18H9V14ZM5 14V16H9V14H5ZM5 16H7V12H5V16ZM3 10V14H7V10H3ZM7 8H5V12H7V8ZM5 8V10H9V8H5ZM9 6H7V10H9V6ZM7 6V8H11V6H7ZM11 4H9V8H11V4ZM13 18V6H9V18H13ZM9 20H11V16H9V20ZM17.0005 13.2233H19.0002V9.22327H17.0005V13.2233ZM15.0005 9.22327V11.2233H19.0005V9.22327H15.0005ZM15.0005 11.2233H17.0005V7.22327H15.0005V11.2233ZM17.0005 11.2233V9.22327H13.0005V11.2233H17.0005ZM17.0002 9.22327H15.0005V13.2233H17.0002V9.22327ZM19.0002 13.2233V11.2233H15.0002V13.2233H19.0002ZM15.0005 15.2233L17.0002 15.2233L17.0002 11.2233L15.0005 11.2233L15.0005 15.2233ZM17.0005 15.2233V13.2233H13.0005V15.2233H17.0005ZM17.0005 13.2233H15.0005V17.2233H17.0005V13.2233ZM15.0005 13.2233V15.2233H19.0005V13.2233H15.0005ZM19.0002 11.2233L17.0005 11.2233L17.0005 15.2233L19.0002 15.2233L19.0002 11.2233ZM21.0002 15.2233V13.2233H17.0002V15.2233H21.0002ZM21.0002 13.2233H19.0002V17.2233H21.0002V13.2233ZM19.0002 13.2233V15.2233H23.0002V13.2233H19.0002ZM19.0002 15.2233L21.0002 15.2233L21.0002 11.2233L19.0002 11.2233L19.0002 15.2233ZM17.0002 11.2233V13.2233H21.0002V11.2233H17.0002ZM21.0002 9.22327H19.0002V13.2233H21.0002V9.22327ZM19.0002 9.22327V11.2233H23.0002V9.22327H19.0002ZM19.0002 11.2233H21.0002V7.22327H19.0002V11.2233ZM21.0002 11.2233V9.22327H17.0002V11.2233H21.0002Z" fill="black" mask="url(#path-1-outside-1_1_1872)"/>
</svg>
